<svg class="icon icon-col-4" xmlns="http://www.w3.org/2000/svg" viewBox="0 0 13.5 12.5"><defs></defs><g id="Layer_2" data-name="Layer 2"><g id="Layer_1-2" data-name="Layer 1"><g id="shop_page" data-name="shop page"><g id="_4_col" data-name="4_col"><path id="Rectangle" d="M.75 0a.76.76 0 01.75.75v11a.76.76 0 01-.75.75.76.76 0 01-.75-.75v-11A.76.76 0 01.75 0z"></path><path id="Rectangle-2" d="M4.75 0a.76.76 0 01.75.75v11a.76.76 0 01-.75.75.76.76 0 01-.75-.75v-11A.76.76 0 014.75 0z" data-name="Rectangle"></path><path id="Rectangle-3" d="M8.75 0a.76.76 0 01.75.75v11a.76.76 0 01-.75.75.76.76 0 01-.75-.75v-11A.76.76 0 018.75 0z" data-name="Rectangle"></path><path id="Rectangle-4" d="M12.75 0a.76.76 0 01.75.75v11a.76.76 0 01-.75.75.76.76 0 01-.75-.75v-11a.76.76 0 01.75-.75z" data-name="Rectangle"></path></g></g></g></g></svg>