<svg id="Capa_1" height="30px" width="30px" fill="#ffffff" class="icon icon-header-menu" version="1.0" xmlns="http://www.w3.org/2000/svg" xmlns:xlink="http://www.w3.org/1999/xlink" x="0px" y="0px" viewBox="0 0 100 100" enable-background="new 0 0 100 100" xml:space="preserve">
<path d="M20.833,10C14.851,10,10,14.85,10,20.833c0,5.983,4.851,10.833,10.833,10.833c5.983,0,10.834-4.85,10.834-10.833
	C31.667,14.85,26.816,10,20.833,10z M20.833,25c-2.298,0-4.166-1.869-4.166-4.167c0-2.298,1.868-4.167,4.166-4.167
	c2.299,0,4.167,1.869,4.167,4.167C25,23.131,23.132,25,20.833,25z"></path>
<path d="M79.167,31.667c5.979,0,10.833-4.85,10.833-10.833C90,14.85,85.146,10,79.167,10c-5.98,0-10.834,4.85-10.834,10.833
	C68.333,26.816,73.187,31.667,79.167,31.667z M79.167,16.667c2.298,0,4.166,1.869,4.166,4.167c0,2.298-1.868,4.167-4.166,4.167
	C76.868,25,75,23.131,75,20.833C75,18.535,76.868,16.667,79.167,16.667z"></path>
<path d="M50,39.167c-5.983,0-10.833,4.851-10.833,10.833c0,5.983,4.85,10.833,10.833,10.833c5.979,0,10.833-4.85,10.833-10.833
	C60.833,44.017,55.979,39.167,50,39.167z M50,54.167c-2.298,0-4.167-1.868-4.167-4.167c0-2.298,1.869-4.167,4.167-4.167
	s4.167,1.868,4.167,4.167C54.167,52.299,52.298,54.167,50,54.167z"></path>
<path d="M20.833,39.167C14.851,39.167,10,44.017,10,50c0,5.983,4.851,10.833,10.833,10.833c5.983,0,10.834-4.85,10.834-10.833
	C31.667,44.017,26.816,39.167,20.833,39.167z M20.833,54.167c-2.298,0-4.166-1.868-4.166-4.167c0-2.298,1.868-4.167,4.166-4.167
	C23.132,45.833,25,47.702,25,50C25,52.299,23.132,54.167,20.833,54.167z"></path>
<path d="M50,68.333c-5.983,0-10.833,4.851-10.833,10.834C39.167,85.149,44.017,90,50,90c5.979,0,10.833-4.851,10.833-10.833
	C60.833,73.184,55.979,68.333,50,68.333z M50,83.333c-2.298,0-4.167-1.868-4.167-4.166C45.833,76.868,47.702,75,50,75
	s4.167,1.868,4.167,4.167C54.167,81.465,52.298,83.333,50,83.333z"></path>
<path d="M50,10c-5.983,0-10.833,4.85-10.833,10.833c0,5.983,4.85,10.833,10.833,10.833c5.979,0,10.833-4.85,10.833-10.833
	C60.833,14.85,55.979,10,50,10z M50,25c-2.298,0-4.167-1.869-4.167-4.167c0-2.298,1.869-4.167,4.167-4.167s4.167,1.869,4.167,4.167
	C54.167,23.131,52.298,25,50,25z"></path>
<path d="M79.167,39.167c-5.98,0-10.834,4.851-10.834,10.833c0,5.983,4.854,10.833,10.834,10.833C85.146,60.833,90,55.983,90,50
	C90,44.017,85.146,39.167,79.167,39.167z M79.167,54.167C76.868,54.167,75,52.299,75,50c0-2.298,1.868-4.167,4.167-4.167
	c2.298,0,4.166,1.868,4.166,4.167C83.333,52.299,81.465,54.167,79.167,54.167z"></path>
</svg>