<svg width="18px" height="18px" class="icon icon-cmcompare not-added" viewBox="0 0 512 512" data-name="Layer 1" id="Layer_1" xmlns="http://www.w3.org/2000/svg"><path d="M412.31,291.46,478,357.15l-65.69,65.68-21-21L421.07,372h-44a87.86,87.86,0,0,1-62.53-25.9l-159.2-159.2a58.29,58.29,0,0,0-41.5-17.19H34V140h79.87a87.83,87.83,0,0,1,62.53,25.91L335.6,325.08a58.27,58.27,0,0,0,41.5,17.19h44l-29.79-29.78Zm-257,33.65a59.1,59.1,0,0,1-41.53,17.16H34V372h79.81a89,89,0,0,0,62.54-25.86l53.7-53.51-21-21.07ZM335.63,186.89a59.09,59.09,0,0,1,41.53-17.16h43.91l-29.79,29.78,21,21L478,154.86,412.31,89.17l-21,21L421.07,140H377.16a89.08,89.08,0,0,0-62.58,25.89l-53.52,53.7,21.07,21Z"></path></svg>