<svg id="Capa_1" width="36px" height="36px" fill="#fff" xmlns="http://www.w3.org/2000/svg" viewBox="0 0 64 64">
  <g id="Layer_46" data-name="Layer 46">
    <path d="M56.73,10.82a16.36,16.36,0,0,0-23,0L32,12.51l-1.7-1.69a16.36,16.36,0,0,0-23,0,16.28,16.28,0,0,0,0,23L30.94,
             57.52a1.51,1.51,0,0,0,2.12,0L56.73,33.85A16.36,16.36,0,0,0,56.73,10.82ZM54.61,31.73,32,54.33,9.39,31.73a13.21,
             13.21,0,0,1-3.89-9.4A13.35,13.35,0,0,1,18.79,9.05a13.16,13.16,0,0,1,9.39,3.89l2.76,2.75a1.49,1.49,0,0,0,2.12,0l2.76-2.75A13.29,13.29,0,0,1,54.61,31.73Z"></path>
</g></svg>